<svg width="41" height="41" viewBox="0 0 41 41" fill="none" xmlns="http://www.w3.org/2000/svg">
<path d="M27.069 28.4393L23.6632 29.3442C23.4575 29.3989 23.3357 29.6097 23.3915 29.8158L24.9544 35.6001C25.3628 37.112 26.9164 38.0118 28.4246 37.6111L31.4269 36.8133C32.5014 36.5278 33.1366 35.4232 32.8456 34.346C32.5545 33.2689 31.4475 32.6271 30.3729 32.9127L29.7836 33.0693C29.2351 33.2151 28.6704 32.8885 28.5219 32.3388L27.5423 28.7134C27.4865 28.5072 27.2748 28.3846 27.069 28.4393Z" fill="#008425"/>
<path fill-rule="evenodd" clip-rule="evenodd" d="M22.5236 30.0463C22.3374 29.3571 22.7453 28.6544 23.429 28.4728L26.835 27.5677C27.5199 27.3857 28.2267 27.7941 28.4125 28.482L29.3922 32.1075C29.4104 32.1751 29.4799 32.2165 29.5496 32.1979L30.1391 32.0413C31.6936 31.6282 33.2951 32.5567 33.7162 34.1149C34.1372 35.6731 33.2183 37.2712 31.6638 37.6842L28.6614 38.482C26.6735 39.0102 24.6252 37.8242 24.0866 35.8308L22.5236 30.0463ZM24.3961 30.0829L25.8245 35.3691C26.103 36.3996 27.1619 37.0133 28.1907 36.7399L31.1931 35.9421C31.7878 35.7841 32.1393 35.1728 31.9783 34.5766C31.8171 33.9805 31.2045 33.6254 30.6098 33.7834L30.0203 33.94C28.9932 34.213 27.9331 33.6013 27.6542 32.5693L26.8092 29.4417L24.3961 30.0829Z" fill="#25362A"/>
<path d="M7.22995 9.54356L18.6909 3.06895C19.5174 2.60202 20.5288 2.60202 21.3553 3.06895L32.8162 9.54356C33.6641 10.0226 34.1883 10.9197 34.1883 11.8921V25.012C34.1883 25.978 33.6709 26.8702 32.8319 27.3517L21.3916 33.9156C20.546 34.4007 19.5041 34.3938 18.665 33.8976L7.18347 27.1073C6.36178 26.6214 5.85791 25.7388 5.85791 24.7857V11.8921C5.85791 10.9197 6.38205 10.0226 7.22995 9.54356Z" fill="#009E2C"/>
<path d="M15.1537 11.1863L20.2912 8.3667L25.4287 11.1863L23.5399 12.2279L20.2912 10.45L17.0425 12.2279L15.1537 11.1863ZM25.4287 14.7422L23.5399 13.7006L20.2912 15.4785L17.0425 13.7006L15.1537 14.7422V16.8255L18.4024 18.6034V22.1594L20.2912 23.201L22.18 22.1594V18.6034L25.4287 16.8255V14.7422ZM25.4287 20.3814V18.2981L23.5399 19.3398V21.423L25.4287 20.3814ZM26.7697 21.1177L23.5211 22.8956V24.9789L28.6585 22.1594V16.5201L26.7697 17.5618V21.1177ZM24.881 12.9642L26.7697 14.0059V16.0891L28.6585 15.0475V12.9642L26.7697 11.9226L24.881 12.9642ZM18.4024 23.6499V25.7332L20.2912 26.7748L22.18 25.7332V23.6499L20.2912 24.6916L18.4024 23.6499ZM15.1537 20.3814L17.0425 21.423V19.3398L15.1537 18.2981V20.3814ZM18.4024 12.9642L20.2912 14.0059L22.18 12.9642L20.2912 11.9226L18.4024 12.9642ZM13.8126 14.0059L15.7015 12.9642L13.8126 11.9226L11.9238 12.9642V15.0475L13.8126 16.0891V14.0059ZM13.8126 17.5618L11.9238 16.5201V22.1594L17.0613 24.9789V22.8956L13.8126 21.1177V17.5618Z" fill="#2EC659"/>
<path fill-rule="evenodd" clip-rule="evenodd" d="M21.1717 3.75116C20.6175 3.43826 19.9393 3.43826 19.3852 3.75116L7.8582 10.2593C7.28967 10.5804 6.93823 11.1816 6.93823 11.8332V24.7937C6.93823 25.4324 7.27608 26.0238 7.82703 26.3495L19.3748 33.1751C19.9374 33.5076 20.636 33.5122 21.2029 33.187L32.7092 26.5891C33.2718 26.2664 33.6186 25.6686 33.6186 25.0213V11.8332C33.6186 11.1816 33.2672 10.5804 32.6986 10.2593L21.1717 3.75116ZM18.4919 2.17736C19.6003 1.55156 20.9565 1.55156 22.065 2.17736L33.5919 8.68558C34.7289 9.32757 35.4319 10.53 35.4319 11.8332V25.0213C35.4319 26.3159 34.7382 27.5116 33.6129 28.1569L22.1068 34.7549C20.9727 35.4051 19.5756 35.3959 18.4503 34.7308L6.9026 27.9052C5.80069 27.2539 5.125 26.0712 5.125 24.7937V11.8332C5.125 10.53 5.82788 9.32758 6.96494 8.68558L18.4919 2.17736Z" fill="#50C194"/>
<path d="M18.9604 30.5643V19.2825C18.9604 17.9981 19.6322 16.8115 20.7224 16.1697L30.1537 10.6184C31.9142 9.58212 34.1139 10.8789 34.1139 12.953V24.7334C34.1139 25.6952 33.6117 26.5842 32.7959 27.066L22.9242 32.8969C21.1637 33.9368 18.9604 32.6403 18.9604 30.5643Z" fill="#5ED47F"/>
<path fill-rule="evenodd" clip-rule="evenodd" d="M21.1717 3.75116C20.6175 3.43825 19.9393 3.43826 19.3852 3.75116L7.8582 10.2593C7.28967 10.5804 6.93823 11.1816 6.93823 11.8332V24.7936C6.93823 25.4324 7.27608 26.0238 7.82703 26.3495L19.3748 33.1751C19.9374 33.5076 20.636 33.5122 21.2029 33.187L32.7092 26.5891C33.2718 26.2664 33.6186 25.6686 33.6186 25.0213V11.8332C33.6186 11.1816 33.2672 10.5804 32.6986 10.2593L21.1717 3.75116ZM18.4919 2.17736C19.6003 1.55156 20.9565 1.55156 22.065 2.17736L33.5919 8.68558C34.7289 9.32757 35.4319 10.53 35.4319 11.8332V25.0213C35.4319 26.3158 34.7382 27.5116 33.6129 28.1569L22.1068 34.7549C20.9727 35.4051 19.5756 35.3959 18.4503 34.7308L6.9026 27.9052C5.80069 27.2539 5.125 26.0712 5.125 24.7936V11.8332C5.125 10.53 5.82788 9.32757 6.96494 8.68558L18.4919 2.17736Z" fill="#25362A"/>
<path d="M26.272 21.7171C26.272 23.1236 25.4559 24.2637 24.449 24.2637C23.4422 24.2637 22.626 23.1236 22.626 21.7171C22.626 20.3106 23.4422 19.1704 24.449 19.1704C25.4559 19.1704 26.272 20.3106 26.272 21.7171Z" fill="white"/>
<path d="M31.377 18.8069C31.377 20.2134 30.5608 21.3536 29.5539 21.3536C28.5472 21.3536 27.731 20.2134 27.731 18.8069C27.731 17.4004 28.5472 16.2603 29.5539 16.2603C30.5608 16.2603 31.377 17.4004 31.377 18.8069Z" fill="white"/>
<path d="M16.8506 27.8832L13.6506 26.4151C13.4574 26.3264 13.2282 26.4111 13.1386 26.6049C12.4872 28.0135 10.9014 31.4538 9.76343 33.921C9.10735 35.3435 9.72363 37.0227 11.1407 37.6727L13.9614 38.967C14.971 39.4302 16.1698 38.9847 16.6392 37.9721C17.1085 36.9595 16.6705 35.7632 15.661 35.3L15.1043 35.0445C14.5902 34.8087 14.3656 34.2015 14.6031 33.6851C15.2673 32.2407 16.522 29.513 17.0391 28.3927C17.1287 28.1988 17.0438 27.9718 16.8506 27.8832Z" fill="#008425"/>
<path fill-rule="evenodd" clip-rule="evenodd" d="M12.3223 26.2303C12.6224 25.5815 13.3886 25.3008 14.0308 25.5954L17.2311 27.0638C17.8689 27.3563 18.1581 28.1135 17.8572 28.7655C17.3404 29.8851 16.0859 32.6124 15.4215 34.0571C15.3926 34.12 15.4187 34.1954 15.4847 34.2257L16.0414 34.4811C17.502 35.1512 18.1356 36.882 17.4566 38.3471C16.7776 39.812 15.0431 40.4563 13.5825 39.7863L10.7614 38.4919C8.89389 37.6351 8.08186 35.4225 8.94648 33.548C9.24103 32.9093 9.56565 32.2054 9.89633 31.4884C10.843 29.4354 11.8393 27.2748 12.3223 26.2303ZM13.739 27.4476C13.211 28.5905 12.3526 30.4519 11.5313 32.233C11.2004 32.9504 10.8756 33.6548 10.5808 34.2941C10.1331 35.2647 10.5538 36.4106 11.5206 36.8541L14.3417 38.1484C14.9004 38.4048 15.564 38.1583 15.8237 37.5979C16.0834 37.0374 15.841 36.3753 15.2823 36.1189L14.7256 35.8635C13.7631 35.4219 13.3401 34.2829 13.7863 33.3129C14.3706 32.0424 15.4123 29.7778 16.0067 28.4881L13.739 27.4476Z" fill="#25362A"/>
</svg>
